<svg xmlns="http://www.w3.org/2000/svg" x="0px" y="0px" width="40" height="40" viewBox="0,0,256,256"
style="fill:#000000;">
<g transform="translate(-24.32,-24.32) scale(1.19,1.19)"><g fill="#a8a3a3" fill-rule="nonzero" stroke="none" stroke-width="1" stroke-linecap="butt" stroke-linejoin="miter" stroke-miterlimit="10" stroke-dasharray="" stroke-dashoffset="0" font-family="none" font-weight="none" font-size="none" text-anchor="none" style="mix-blend-mode: normal"><g transform="scale(4,4)"><path d="M32,6c-14.359,0 -26,11.641 -26,26c0,14.359 11.641,26 26,26c14.359,0 26,-11.641 26,-26c0,-14.359 -11.641,-26 -26,-26zM44.927,26.226c0.012,0.271 0.017,0.543 0.017,0.816c0,8.34 -6.189,17.958 -17.51,17.958c-3.476,0 -6.711,-1.045 -9.435,-2.835c0.482,0.059 0.973,0.089 1.469,0.089c2.884,0 5.538,-1.009 7.644,-2.702c-2.693,-0.051 -4.966,-1.877 -5.749,-4.384c0.375,0.072 0.761,0.112 1.157,0.112c0.562,0 1.107,-0.077 1.622,-0.221c-2.816,-0.579 -4.937,-3.13 -4.937,-6.188c0,-0.027 0,-0.052 0,-0.079c0.83,0.472 1.779,0.756 2.788,0.789c-1.651,-1.131 -2.737,-3.063 -2.737,-5.252c0,-1.158 0.303,-2.242 0.832,-3.175c3.037,3.819 7.571,6.333 12.686,6.595c-0.104,-0.46 -0.159,-0.943 -0.159,-1.438c0,-3.485 2.755,-6.311 6.154,-6.311c1.77,0 3.369,0.767 4.492,1.994c1.403,-0.284 2.721,-0.809 3.909,-1.532c-0.459,1.474 -1.434,2.711 -2.706,3.492c1.246,-0.154 2.432,-0.492 3.536,-0.995c-0.825,1.265 -1.869,2.376 -3.073,3.267z"></path></g></g></g>
</svg>